<svg width="120" height="147" viewBox="0 0 120 147" fill="none" xmlns="http://www.w3.org/2000/svg">
<path d="M113.904 73.392C113.904 116.784 92.4 140.784 60.144 140.784C27.696 140.784 6 116.784 6 73.392C6 30 27.696 6 60.144 6C92.4 6 113.904 30 113.904 73.392ZM82.224 73.392C82.224 45.744 75.12 30.384 60.144 30.384C45.168 30.384 37.872 45.744 37.872 73.392C37.872 101.04 45.168 116.4 60.144 116.4C75.12 116.4 82.224 101.04 82.224 73.392Z" fill="url(#paint0_linear_124_76)"/>
<path d="M113.904 73.3916C113.904 30.339 92.7348 6.37589 60.8984 6.00391L60.1436 6C27.6959 6.00022 6.00013 30.0001 6 73.3916L6.00391 74.4053C6.3369 116.821 27.6106 140.411 59.3857 140.779L60.1436 140.784C92.1476 140.784 113.568 117.157 113.9 74.4053L113.904 73.3916ZM76.2236 73.3916C76.2236 59.8972 74.4605 50.2569 71.4336 44.2031C69.9592 41.2543 68.2845 39.3573 66.5537 38.1885C64.8656 37.0485 62.8069 36.3838 60.1436 36.3838C57.48 36.3839 55.4026 37.0489 53.6895 38.1982C51.9347 39.3756 50.2382 41.2822 48.7441 44.2314C45.6793 50.2815 43.8721 59.9153 43.8721 73.3916C43.8721 86.8682 45.6793 96.5026 48.7441 102.553C50.2382 105.502 51.9347 107.409 53.6895 108.586C55.4026 109.735 57.4801 110.4 60.1436 110.4V116.4L59.4473 116.389C45.1719 115.924 38.0979 101.09 37.877 74.6787L37.8721 73.3916C37.8721 45.7441 45.1679 30.3841 60.1436 30.3838L60.8398 30.3955C75.3401 30.867 82.2236 46.1756 82.2236 73.3916L82.2188 74.6787C82.0001 101.516 74.8856 116.4 60.1436 116.4V110.4C62.8068 110.4 64.8656 109.736 66.5537 108.596C68.2845 107.427 69.9592 105.53 71.4336 102.581C74.4605 96.5272 76.2236 86.8862 76.2236 73.3916ZM119.904 73.3916C119.904 96.0108 114.302 114.363 103.752 127.174C93.0905 140.12 77.8776 146.784 60.1436 146.784C42.3277 146.784 27.0247 140.131 16.2871 127.191C5.65622 114.381 0 96.0228 0 73.3916C6.61071e-05 50.7606 5.65629 32.4036 16.2871 19.5928C27.0247 6.65335 42.3277 0.000112059 60.1436 0C77.8775 0 93.0905 6.66335 103.752 19.6094C114.302 32.4206 119.904 50.7723 119.904 73.3916Z" fill="#EEF3FF"/>
<defs>
<linearGradient id="paint0_linear_124_76" x1="59.952" y1="6" x2="59.952" y2="140.784" gradientUnits="userSpaceOnUse">
<stop stop-color="#2D103D"/>
<stop offset="1" stop-color="#5D6FA7"/>
</linearGradient>
</defs>
</svg>
