<svg width="323" height="155" viewBox="0 0 323 155" fill="none" xmlns="http://www.w3.org/2000/svg">
<g filter="url(#filter0_d_66_2)">
<path d="M89.296 33.456H42.64V60.336H77.2L81.808 88.176H42.64V138.48H10V6H89.296V33.456Z" fill="url(#paint0_linear_66_2)"/>
<path d="M209.283 73.584C209.283 116.976 187.779 140.976 155.523 140.976C123.075 140.976 101.379 116.976 101.379 73.584C101.379 30.192 123.075 6.19201 155.523 6.19201C187.779 6.19201 209.283 30.192 209.283 73.584ZM177.603 73.584C177.603 45.936 170.499 30.576 155.523 30.576C140.547 30.576 133.251 45.936 133.251 73.584C133.251 101.232 140.547 116.592 155.523 116.592C170.499 116.592 177.603 101.232 177.603 73.584Z" fill="url(#paint1_linear_66_2)"/>
<path d="M308.506 136.176L278.362 139.824L262.234 110.832L246.682 138.48H219.034L247.642 92.016L220.378 46.704L250.522 43.056L265.114 69.744L279.514 44.4H306.97L279.706 88.56L308.506 136.176Z" fill="url(#paint2_linear_66_2)"/>
<path d="M89.296 36.456H92.296V33.456V6V3H89.296H10H7V6V138.48V141.48H10H42.64H45.64V138.48V91.176H81.808H85.3454L84.7677 87.6861L80.1597 59.8461L79.7443 57.336H77.2H45.64V36.456H89.296ZM308.866 139.154L313.476 138.596L311.073 134.623L283.222 88.5761L309.523 45.976L312.348 41.4H306.97H279.514H277.768L276.906 42.918L265.164 63.5826L253.154 41.6168L252.179 39.8336L250.162 40.0777L220.018 43.7257L215.42 44.2822L217.807 48.2507L244.13 91.9981L216.479 136.907L213.664 141.48H219.034H246.682H248.437L249.297 139.951L262.219 116.977L275.74 141.282L276.721 143.045L278.722 142.802L308.866 139.154ZM155.523 143.976C172.454 143.976 186.78 137.644 196.814 125.459C206.794 113.341 212.283 95.7417 212.283 73.584C212.283 51.4263 206.794 33.8265 196.814 21.7089C186.78 9.52386 172.454 3.19201 155.523 3.19201C138.502 3.19201 124.083 9.51846 113.974 21.7002C103.918 33.8177 98.3785 51.4204 98.3785 73.584C98.3785 95.7476 103.918 113.35 113.974 125.468C124.083 137.65 138.502 143.976 155.523 143.976ZM155.523 33.576C158.726 33.576 161.381 34.3882 163.612 35.8942C165.863 37.4146 167.846 39.7552 169.495 43.0536C172.833 49.7286 174.603 59.9247 174.603 73.584C174.603 87.2433 172.833 97.4395 169.495 104.114C167.846 107.413 165.863 109.753 163.612 111.274C161.381 112.78 158.726 113.592 155.523 113.592C152.319 113.592 149.648 112.78 147.396 111.269C145.124 109.744 143.118 107.399 141.447 104.1C138.066 97.4272 136.251 87.2343 136.251 73.584C136.251 59.9337 138.066 49.7408 141.447 43.0677C143.118 39.7691 145.124 37.4239 147.396 35.8992C149.648 34.3884 152.319 33.576 155.523 33.576Z" stroke="#EEF3FF" stroke-width="6"/>
</g>
<defs>
<filter id="filter0_d_66_2" x="0" y="0" width="322.446" height="154.976" filterUnits="userSpaceOnUse" color-interpolation-filters="sRGB">
<feFlood flood-opacity="0" result="BackgroundImageFix"/>
<feColorMatrix in="SourceAlpha" type="matrix" values="0 0 0 0 0 0 0 0 0 0 0 0 0 0 0 0 0 0 127 0" result="hardAlpha"/>
<feOffset dy="4"/>
<feGaussianBlur stdDeviation="2"/>
<feComposite in2="hardAlpha" operator="out"/>
<feColorMatrix type="matrix" values="0 0 0 0 0 0 0 0 0 0 0 0 0 0 0 0 0 0 0.25 0"/>
<feBlend mode="normal" in2="BackgroundImageFix" result="effect1_dropShadow_66_2"/>
<feBlend mode="normal" in="SourceGraphic" in2="effect1_dropShadow_66_2" result="shape"/>
</filter>
<linearGradient id="paint0_linear_66_2" x1="159.253" y1="6" x2="159.253" y2="140.976" gradientUnits="userSpaceOnUse">
<stop stop-color="#B3B3B3"/>
<stop offset="1" stop-color="#222222"/>
</linearGradient>
<linearGradient id="paint1_linear_66_2" x1="159.253" y1="6" x2="159.253" y2="140.976" gradientUnits="userSpaceOnUse">
<stop stop-color="#2D103D"/>
<stop offset="1" stop-color="#5D6FA7"/>
</linearGradient>
<linearGradient id="paint2_linear_66_2" x1="159.253" y1="6" x2="159.253" y2="140.976" gradientUnits="userSpaceOnUse">
<stop stop-color="#2D103D"/>
<stop offset="1" stop-color="#5D6FA7"/>
</linearGradient>
</defs>
</svg>
